<?xml version="1.0" encoding="UTF-8" standalone="no"?><!-- Generator: Gravit.io --><svg xmlns="http://www.w3.org/2000/svg" xmlns:xlink="http://www.w3.org/1999/xlink" style="isolation:isolate" viewBox="0 0 512 512" width="512pt" height="512pt"><defs><clipPath id="_clipPath_EX7ioZExRTg8nlqoi7oQbIiK3eevSSF6"><rect width="512" height="512"/></clipPath></defs><g clip-path="url(#_clipPath_EX7ioZExRTg8nlqoi7oQbIiK3eevSSF6)"><path d="M 91.513 70.115 L 421.352 70.115 C 437.909 70.115 451.352 83.558 451.352 100.115 L 451.352 154.115 L 61.513 154.115 L 61.513 100.115 C 61.513 83.558 74.956 70.115 91.513 70.115 Z" style="stroke:none;fill:#000000;stroke-miterlimit:10;"/><path d=" M 451.352 158.615 L 451.352 415.134 L 451.352 415.134 C 451.352 431.753 437.983 445.121 421.364 445.121 L 91.5 445.121 C 74.881 445.121 61.513 431.753 61.513 415.134 L 61.513 415.134 L 61.513 430.128 L 61.513 430.128 L 61.513 415.134 L 61.513 100.103 C 61.513 83.542 74.94 70.115 91.5 70.115 L 421.364 70.115 C 437.925 70.115 451.352 83.542 451.352 100.103 L 451.352 154.115 L 61.513 154.115 L 61.513 158.615 L 451.352 158.615 L 451.352 158.615 Z  M 91.5 460.115 L 91.5 460.115 Z  M 274.662 207.374 L 347.116 279.828 C 357.416 290.128 357.416 306.852 347.116 317.152 L 274.662 389.606 C 264.362 399.906 247.638 399.906 237.338 389.606 L 164.884 317.152 C 154.584 306.852 154.584 290.128 164.884 279.828 L 237.338 207.374 C 247.638 197.074 264.362 197.074 274.662 207.374 Z " fill-rule="evenodd" fill="rgb(0,0,0)"/><path d=" M 257.449 262.217 L 257.449 262.217 L 257.449 262.217 Q 265.26 262.217 271.52 264.411 L 271.52 264.411 L 271.52 264.411 Q 277.779 266.604 281.364 270.991 L 281.364 270.991 L 281.364 270.991 Q 284.948 275.378 284.948 281.905 L 284.948 281.905 L 284.948 281.905 Q 284.948 288.539 282.22 292.712 L 282.22 292.712 L 282.22 292.712 Q 279.491 296.885 274.837 299.025 L 274.837 299.025 L 274.837 299.025 Q 270.182 301.165 264.618 301.807 L 264.618 301.807 L 263.548 311.009 L 247.498 311.009 L 247.605 294.745 L 247.605 294.745 Q 254.132 294.103 258.037 292.766 L 258.037 292.766 L 258.037 292.766 Q 261.943 291.428 263.655 289.342 L 263.655 289.342 L 263.655 289.342 Q 265.367 287.255 265.367 284.366 L 265.367 284.366 L 265.367 284.366 Q 265.367 280.835 263.12 278.909 L 263.12 278.909 L 263.12 278.909 Q 260.873 276.983 256.165 276.983 L 256.165 276.983 L 256.165 276.983 Q 251.564 276.983 248.889 279.712 L 248.889 279.712 L 248.889 279.712 Q 246.214 282.44 245.465 287.79 L 245.465 287.79 L 227.917 281.691 L 227.917 281.691 Q 229.308 276.127 232.785 271.687 L 232.785 271.687 L 232.785 271.687 Q 236.263 267.246 242.308 264.732 L 242.308 264.732 L 242.308 264.732 Q 248.354 262.217 257.449 262.217 Z  M 255.737 316.894 L 255.737 316.894 L 255.737 316.894 Q 260.552 316.894 263.281 319.248 L 263.281 319.248 L 263.281 319.248 Q 266.009 321.602 266.009 325.882 L 266.009 325.882 L 266.009 325.882 Q 266.009 330.055 263.281 332.409 L 263.281 332.409 L 263.281 332.409 Q 260.552 334.763 255.737 334.763 L 255.737 334.763 L 255.737 334.763 Q 251.029 334.763 248.301 332.409 L 248.301 332.409 L 248.301 332.409 Q 245.572 330.055 245.572 325.882 L 245.572 325.882 L 245.572 325.882 Q 245.572 321.602 248.301 319.248 L 248.301 319.248 L 248.301 319.248 Q 251.029 316.894 255.737 316.894 Z " fill="rgb(0,0,0)"/></g></svg>